<?xml version="1.0" encoding="iso-8859-1"?>
<!-- Generator: Adobe Illustrator 17.1.0, SVG Export Plug-In . SVG Version: 6.00 Build 0)  -->
<!DOCTYPE svg PUBLIC "-//W3C//DTD SVG 1.1//EN" "http://www.w3.org/Graphics/SVG/1.1/DTD/svg11.dtd">
<svg version="1.1" id="Capa_1" xmlns="http://www.w3.org/2000/svg" xmlns:xlink="http://www.w3.org/1999/xlink" x="0px" y="0px"
	 viewBox="0 0 440.344 440.344" style="enable-background:new 0 0 440.344 440.344;" xml:space="preserve">
<g>
	<path d="M416.43,188.455c-0.676-0.876-1.328-1.722-1.95-2.542c-7.762-10.228-14.037-21.74-19.573-31.897
		c-5.428-9.959-10.555-19.366-16.153-25.871c-12.489-14.513-24.24-21.567-35.925-21.567l-57.701,0
		c-0.055,0.001-5.567,0.068-12.201,0.068h-9.409c-6.725,0-12.59,4.566-14.262,11.104l-0.078,0.305v127.401l0.014,0.262
		c0.007,0.077,0.15,1.902-1.289,3.472c-1.587,1.734-4.634,2.65-8.812,2.65H14.345C6.435,251.839,0,257.893,0,265.334v46.388
		c0,7.441,6.435,13.495,14.345,13.495h49.36c2.586,29.549,27.453,52.81,57.667,52.81c30.214,0,55.083-23.261,57.668-52.81h82.61
		c2.586,29.549,27.453,52.81,57.667,52.81c30.214,0,55.083-23.261,57.668-52.81h37.545c14.233,0,25.813-11.579,25.813-25.811v-44.29
		C440.344,219.47,425.953,200.805,416.43,188.455z M340.907,320.132c0,11.901-9.685,21.583-21.59,21.583
		c-11.901,0-21.583-9.682-21.583-21.583c0-11.901,9.682-21.584,21.583-21.584C331.222,298.548,340.907,308.23,340.907,320.132z
		 M390.551,207.76c-0.451,0.745-1.739,1.066-3.695,0.941l-99.197-0.005v-80.914h42.886c11.539,0,19.716,5.023,28.224,17.337
		c5.658,8.19,20.639,33.977,21.403,35.293c0.532,1.027,1.079,2.071,1.631,3.125C386.125,191.798,392.658,204.279,390.551,207.76z
		 M121.372,298.548c11.905,0,21.59,9.683,21.59,21.584c0,11.901-9.685,21.583-21.59,21.583c-11.901,0-21.583-9.682-21.583-21.583
		C99.789,308.23,109.471,298.548,121.372,298.548z"/>
	<path d="M30.234,231.317h68c6.893,0,12.5-5.607,12.5-12.5v-50c0-6.893-5.607-12.5-12.5-12.5h-68c-6.893,0-12.5,5.607-12.5,12.5v50
		C17.734,225.71,23.342,231.317,30.234,231.317z"/>
	<path d="M143.234,231.317h68c6.893,0,12.5-5.607,12.5-12.5v-50c0-6.893-5.607-12.5-12.5-12.5h-68c-6.893,0-12.5,5.607-12.5,12.5v50
		C130.734,225.71,136.342,231.317,143.234,231.317z"/>
	<path d="M30.234,137.317h68c6.893,0,12.5-5.607,12.5-12.5v-50c0-6.893-5.607-12.5-12.5-12.5h-68c-6.893,0-12.5,5.607-12.5,12.5v50
		C17.734,131.71,23.342,137.317,30.234,137.317z"/>
	<path d="M143.234,137.317h68c6.893,0,12.5-5.607,12.5-12.5v-50c0-6.893-5.607-12.5-12.5-12.5h-68c-6.893,0-12.5,5.607-12.5,12.5v50
		C130.734,131.71,136.342,137.317,143.234,137.317z"/>
</g>
<g>
</g>
<g>
</g>
<g>
</g>
<g>
</g>
<g>
</g>
<g>
</g>
<g>
</g>
<g>
</g>
<g>
</g>
<g>
</g>
<g>
</g>
<g>
</g>
<g>
</g>
<g>
</g>
<g>
</g>
</svg>
